<svg width="19" height="18" viewBox="0 0 19 18" fill="none" xmlns="http://www.w3.org/2000/svg">
<g clip-path="url(#clip0_2_37)">
<path d="M17.8204 7.43517L10.4784 7.43481C10.1542 7.43481 9.89136 7.69757 9.89136 8.02178V10.3672C9.89136 10.6914 10.1541 10.9542 10.4783 10.9542H14.6129C14.1602 12.1292 13.3152 13.1131 12.2371 13.7384L14 16.7902C16.8281 15.1547 18.5 12.2849 18.5 9.07239C18.5 8.61497 18.4663 8.28799 18.3989 7.91979C18.3476 7.64006 18.1048 7.43517 17.8204 7.43517Z" fill="#167EE6"/>
<path d="M9.50002 14.4783C7.47663 14.4783 5.71024 13.3727 4.76155 11.7368L1.70978 13.4958C3.26281 16.1875 6.17213 18 9.50002 18C11.1326 18 12.673 17.5605 14 16.7944V16.7902L12.237 13.7383C11.4306 14.2061 10.4974 14.4783 9.50002 14.4783Z" fill="#12B347"/>
<path d="M14 16.7944V16.7902L12.237 13.7383C11.4306 14.206 10.4975 14.4782 9.5 14.4782V18C11.1326 18 12.6731 17.5604 14 16.7944Z" fill="#0F993E"/>
<path d="M4.02174 8.99996C4.02174 8.00261 4.29392 7.06953 4.76154 6.26316L1.70976 4.50415C0.939523 5.82697 0.5 7.36323 0.5 8.99996C0.5 10.6367 0.939523 12.1729 1.70976 13.4958L4.76154 11.7368C4.29392 10.9304 4.02174 9.99731 4.02174 8.99996Z" fill="#FFD500"/>
<path d="M9.50002 3.52174C10.8195 3.52174 12.0314 3.99059 12.9781 4.77046C13.2116 4.96283 13.5511 4.94895 13.765 4.73502L15.4268 3.07318C15.6696 2.83046 15.6523 2.43316 15.393 2.20823C13.8069 0.832254 11.7432 0 9.50002 0C6.17213 0 3.26281 1.81255 1.70978 4.50418L4.76155 6.26319C5.71024 4.62727 7.47663 3.52174 9.50002 3.52174Z" fill="#FF4B26"/>
<path d="M12.9781 4.77046C13.2116 4.96283 13.5511 4.94895 13.765 4.73502L15.4268 3.07318C15.6695 2.83046 15.6522 2.43316 15.393 2.20823C13.8069 0.832219 11.7432 0 9.5 0V3.52174C10.8194 3.52174 12.0314 3.99059 12.9781 4.77046Z" fill="#D93F21"/>
</g>
<defs>
<clipPath id="clip0_2_37">
<rect width="18" height="18" fill="white" transform="translate(0.5)"/>
</clipPath>
</defs>
</svg>
